Coordinates
version=1
nRows=14
nColumns=46
inDegrees=yes

Units are S.I. units (second, meters, Newtons, ...)
Angles are in degrees.

endheader
time	pelvis_tilt	pelvis_list	pelvis_rotation	pelvis_tx	pelvis_ty	pelvis_tz	bb_angle	bb_tx	bb_ty	bb_tz	hip_flexion_r	hip_adduction_r	hip_rotation_r	knee_angle_r	knee_angle_r_beta	ankle_angle_r	subtalar_angle_r	mtp_angle_r	crank_angle_r	hip_flexion_l	hip_adduction_l	hip_rotation_l	knee_angle_l	knee_angle_l_beta	ankle_angle_l	subtalar_angle_l	mtp_angle_l	crank_angle_l	lumbar_extension	lumbar_bending	lumbar_rotation	arm_flex_r	arm_add_r	arm_rot_r	elbow_flex_r	pro_sup_r	wrist_flex_r	wrist_dev_r	arm_flex_l	arm_add_l	arm_rot_l	elbow_flex_l	pro_sup_l	wrist_flex_l	wrist_dev_l
      5.00000000	     -8.38314872	     -0.51475589	     -5.52466863	      0.11939335	      1.13121789	     -0.27723047	      0.00000000	      0.50000000	      0.00000000	      0.25000000	     69.74067642	      5.68864119	      7.24255979	     78.78474987	      1.37505329	     15.57987844	    -15.59823946	      0.00000000	      0.00000000	     48.87867001	    -13.02059189	     -4.86179247	     78.33271963	      1.36716387	     -7.37223946	     -6.93140443	      0.00000000	      0.00000000	    -67.81271257	     -0.91591383	     -0.16204830	     83.89527859	    -10.47778465	     29.98564907	     64.56809594	     45.80194292	      0.00000000	      0.00000000	     78.54219928	    -27.19541186	     24.59179386	     62.58437694	     49.85047034	      0.00000000	      0.00000000
      5.00500000	     -8.15204128	     -0.27266268	     -5.50621811	      0.11909014	      1.12889377	     -0.27674933	      0.00000000	      0.50000000	      0.00000000	      0.25000000	     68.57254631	      5.46061027	      7.49744817	     76.99046718	      1.34373714	     14.95615875	    -15.43733436	      0.00000000	      0.00000000	     49.91586048	    -13.06285010	     -4.76309666	     80.89222461	      1.41183566	     -6.83301455	     -7.24689792	      0.00000000	      0.00000000	    -67.69783987	     -1.10624158	     -0.33180068	     84.01227684	    -10.67585160	     30.41544078	     64.28865902	     45.79703714	      0.00000000	      0.00000000	     78.59145490	    -26.84876478	     24.43116378	     62.20950958	     49.79579933	      0.00000000	      0.00000000
      5.01000000	     -7.87841715	      0.21592409	     -5.45196436	      0.11885760	      1.12706509	     -0.27646878	      0.00000000	      0.50000000	      0.00000000	      0.25000000	     67.42951344	      4.98109576	      7.93670092	     75.31211680	      1.31444440	     14.19360409	    -14.95563667	      0.00000000	      0.00000000	     50.78491958	    -12.80743731	     -4.81197974	     83.20489018	      1.45219929	     -6.36973969	     -7.58204865	      0.00000000	      0.00000000	    -67.67204449	     -1.46237185	     -0.83525244	     83.98861772	    -10.82520218	     30.46621833	     64.22749130	     45.79279920	      0.00000000	      0.00000000	     78.59762209	    -26.67970481	     24.47860604	     62.16879510	     49.79773596	      0.00000000	      0.00000000
      5.01500000	     -7.83805525	      0.15242377	     -5.11591760	      0.11822276	      1.12508283	     -0.27635169	      0.00000000	      0.50000000	      0.00000000	      0.25000000	     66.44339348	      4.62258722	      7.80272088	     73.53280460	      1.28338955	     13.01569756	    -14.84870524	      0.00000000	      0.00000000	     52.17831968	    -12.80939509	     -4.16775213	     85.64049905	      1.49470868	     -5.74169178	     -7.67199761	      0.00000000	      0.00000000	    -67.48078741	     -1.18648009	     -0.81103812	     84.20765991	    -11.01041725	     31.02890936	     63.89221863	     45.79146434	      0.00000000	      0.00000000	     78.86207046	    -26.59440334	     24.65613115	     61.75714683	     49.76882358	      0.00000000	      0.00000000
      5.02000000	     -7.71434654	      0.19065244	     -5.07702183	      0.11806114	      1.12371600	     -0.27621257	      0.00000000	      0.50000000	      0.00000000	      0.25000000	     65.36430116	      4.37987199	      7.79573279	     71.74614500	      1.25220646	     11.68434252	    -14.56379151	      0.00000000	      0.00000000	     53.28303381	    -12.94398133	     -3.83262797	     87.91076375	      1.53433228	     -4.96601881	     -7.55956628	      0.00000000	      0.00000000	    -67.36648545	     -1.19449374	     -0.80946400	     84.32758039	    -11.27391177	     31.64021491	     63.55054265	     45.79577477	      0.00000000	      0.00000000	     78.87586608	    -26.60949945	     24.98012440	     61.47264269	     49.78579482	      0.00000000	      0.00000000
      5.02500000	     -7.52984437	      0.38160157	     -4.82629106	      0.11786216	      1.12294468	     -0.27604969	      0.00000000	      0.50000000	      0.00000000	      0.25000000	     64.18248970	      3.85513318	      7.83701017	     69.95923245	      1.22101895	     10.28460330	    -14.10168141	      0.00000000	      0.00000000	     54.29087117	    -12.79276705	     -3.50308332	     90.00198488	      1.57083097	     -4.19718820	     -7.50905254	      0.00000000	      0.00000000	    -67.40309777	     -1.18446878	     -1.08866533	     84.37102017	    -11.47499762	     31.90173030	     63.48255670	     45.80648835	      0.00000000	      0.00000000	     79.01788040	    -26.65613985	     25.20120649	     61.42343888	     49.80386822	      0.00000000	      0.00000000
      5.03000000	     -7.49347435	      0.80540083	     -4.82537814	      0.11807133	      1.12293665	     -0.27608762	      0.00000000	      0.50000000	      0.00000000	      0.25000000	     63.02683776	      3.39155609	      8.20763623	     67.99806203	      1.18679007	      9.02536443	    -13.43866694	      0.00000000	      0.00000000	     55.23601943	    -12.57794393	     -3.51006461	     91.83908883	      1.60289448	     -3.57395555	     -7.59677321	      0.00000000	      0.00000000	    -67.30135558	     -1.49259615	     -1.50632674	     84.14705835	    -11.64390091	     31.91610355	     63.49382562	     45.80734840	      0.00000000	      0.00000000	     78.85044034	    -26.61314388	     25.29270296	     61.44107872	     49.80645089	      0.00000000	      0.00000000
      5.03500000	     -7.38550080	      0.57068181	     -4.59186917	      0.11796930	      1.12301426	     -0.27575269	      0.00000000	      0.50000000	      0.00000000	      0.25000000	     61.65062333	      3.20051724	      7.89066546	     65.90179006	      1.15020322	      7.05480784	    -13.79201397	      0.00000000	      0.00000000	     56.38836942	    -12.78050452	     -2.75566616	     93.85026945	      1.63799621	     -2.37213063	     -6.73608165	      0.00000000	      0.00000000	    -67.46163736	     -1.22987988	     -1.35916021	     84.37728445	    -11.86987704	     32.39793134	     63.50246847	     45.84841806	      0.00000000	      0.00000000	     79.09860841	    -26.95037974	     25.72719593	     61.54457954	     49.86567075	      0.00000000	      0.00000000
      5.04000000	     -7.54270392	      0.71179907	     -4.62971890	      0.11830800	      1.12358055	     -0.27567295	      0.00000000	      0.50000000	      0.00000000	      0.25000000	     60.46806664	      2.91262338	      7.95491509	     63.70837788	      1.11192096	      5.41242136	    -13.54730704	      0.00000000	      0.00000000	     57.56528276	    -12.83146172	     -2.50309357	     95.56996389	      1.66801054	     -1.36825805	     -6.29171629	      0.00000000	      0.00000000	    -67.31010867	     -1.40340193	     -1.42182950	     84.32345797	    -12.25916259	     32.87863175	     63.48465346	     45.88657601	      0.00000000	      0.00000000	     79.06504800	    -27.13312215	     26.17881422	     61.73312423	     49.93801505	      0.00000000	      0.00000000
      5.04500000	     -7.65906889	      1.23294290	     -4.49500837	      0.11841260	      1.12433780	     -0.27498855	      0.00000000	      0.50000000	      0.00000000	      0.25000000	     59.28093339	      2.26893809	      8.22557038	     61.65680973	      1.07611434	      4.28818937	    -12.79665941	      0.00000000	      0.00000000	     58.66761087	    -12.50723787	     -2.48778001	     97.09198685	      1.69457485	     -0.76289430	     -6.29483575	      0.00000000	      0.00000000	    -67.15292968	     -1.79261973	     -2.00857879	     84.08873571	    -12.48911857	     32.84512580	     63.50562842	     45.88464329	      0.00000000	      0.00000000	     79.00972378	    -27.04423405	     26.26876891	     61.80045575	     49.94525549	      0.00000000	      0.00000000
      5.05000000	     -7.75954120	      1.29213149	     -4.22129529	      0.11836647	      1.12557564	     -0.27486471	      0.00000000	      0.50000000	      0.00000000	      0.25000000	     57.87624318	      1.70178930	      7.90411511	     59.34060176	      1.03568888	      2.57641236	    -12.35733182	      0.00000000	      0.00000000	     59.89411559	    -12.35992248	     -1.93055791	     98.62235719	      1.72128485	      0.37631336	     -5.42923904	      0.00000000	      0.00000000	    -67.24501134	     -1.66236335	     -2.03219905	     84.29266301	    -12.91254721	     33.24187081	     63.66016666	     45.94564674	      0.00000000	      0.00000000	     79.48832194	    -27.24019679	     26.88032117	     61.91549578	     50.03046027	      0.00000000	      0.00000000
      5.05500000	     -8.00437814	      1.76712729	     -4.17900800	      0.11847753	      1.12679584	     -0.27426994	      0.00000000	      0.50000000	      0.00000000	      0.25000000	     56.63634065	      1.05758111	      8.03311227	     57.08867475	      0.99638534	      1.52598754	    -11.42829476	      0.00000000	      0.00000000	     61.14021819	    -12.12685681	     -1.95765588	     99.96927993	      1.74479309	      0.92589396	     -5.34082927	      0.00000000	      0.00000000	    -67.05990357	     -2.11214300	     -2.53467731	     84.14905592	    -13.14032475	     33.23900410	     63.65721622	     45.94352726	      0.00000000	      0.00000000	     79.58975952	    -27.14061458	     26.97451836	     61.96277322	     50.03819495	      0.00000000	      0.00000000
      5.06000000	     -8.19553459	      1.89059634	     -3.89813882	      0.11840196	      1.12814498	     -0.27394092	      0.00000000	      0.50000000	      0.00000000	      0.25000000	     55.19890106	      0.43231494	      7.71553340	     54.73847806	      0.95536667	      0.41262417	    -10.54068857	      0.00000000	      0.00000000	     62.53387180	    -11.96350604	     -1.50151956	    101.34497793	      1.76880355	      1.75969257	     -4.49049945	      0.00000000	      0.00000000	    -67.04732279	     -2.08921683	     -2.60134763	     84.32032782	    -13.57375390	     33.50744822	     63.68634033	     45.97170650	      0.00000000	      0.00000000	     80.12540892	    -27.00635616	     27.45544593	     61.83889058	     50.06570035	      0.00000000	      0.00000000
      5.06500000	     -8.49409326	      2.39400213	     -3.83016162	      0.11849795	      1.12932253	     -0.27322953	      0.00000000	      0.50000000	      0.00000000	      0.25000000	     53.89997913	     -0.27038333	      7.79731847	     52.43901392	      0.91523345	     -0.38292975	     -9.64771167	      0.00000000	      0.00000000	     63.92763730	    -11.76155995	     -1.58232820	    102.58566078	      1.79045755	      2.22371757	     -4.42056391	      0.00000000	      0.00000000	    -66.80911724	     -2.56594678	     -3.14346253	     84.24167143	    -13.82694434	     33.53771461	     63.64740608	     45.96779203	      0.00000000	      0.00000000	     80.30939606	    -26.81928560	     27.58539622	     61.82453250	     50.07011255	      0.00000000	      0.00000000
